; ================================================================
; DevSound song data
; ================================================================

;File Generated Deflemask2DevSound
;by pegmode 

; ================================================================
; Song speed table
; ================================================================


SongSpeedTable:
  db  3,2
SongSpeedTable_End


SongPointerTable:
   dw  PT_Light_Hearted_Massacre
SongPointerTable_End

if(SongSpeedTable_End-SongSpeedTable) < (SongPointerTable_End-SongPointerTable)
	fail "SongSpeedTable does not have enough entries for SongPointerTable"
endc

if(SongSpeedTable_End-SongSpeedTable) > (SongPointerTable_End-SongPointerTable)
	warn "SongSpeedTable has extra entries"
endc


; ================================================================
; Volume sequences
; ================================================================

w0	equ	0
w1	equ	3
w2	equ	7
w3	equ	15

;WARNING WAVE TABLE INSTRUMENT VOLUME SEQUENCES CURRENTLY NEED TO BE RE-MADE BY HAND

vol_DLead:      db  $FF,$e0
vol_BassSPKFade:      db  $FF,$f4
vol_WaveBass_Phase:      db  $FF,$f3
vol_Symbol:      db  $FF,$b2
vol_SKick:      db  $FF,$b1
vol_DLeadmMONTYSDUMP:      db  $FF,$f0
vol_DLead_ARP:      db  $FF,$f2
vol_DLead_Arpsdafasdf:      db  $FF,$f2
vol_DLead_Arp:      db  $FF,$f2
vol_LeadSPK:      db  $FF,$f0
vol_DLead_Arsdafasdfsp:      db  $FF,$f2
vol_Ins_B:      db  $FF,$f3
vol_ARP_C0C_BOUNCE:      db  $FF,$f2
vol_DLeadTAIL:      db  $FF,$e7


s7	equ	$2d

;WANRING CURRENTLY NO AUTOMATIC 7-STEP POLLY MODE FOR NOISE

arp_DLead:	db	0, 0,$FF
arp_BassSPKFade:	db	0, -5, 0,$FE,0
arp_WaveBass_Phase:	db	12, 0,$FF
arp_Symbol:	db	149, 139, 146,$FE,2
arp_SKick:	db	148, 145, 137, 142, 140,$FE,4
arp_DLeadmMONTYSDUMP:	db	0, 0, -1, 0, -1, 0, -2, 0, -2, 0, -3, 0, -3, 0, -4, 0, -4, 0, -5, 0, -5, 0, -6, 0, -6, 0, -7, 0, -7, 0, -8, 0, -8, 0, -9, 0, -9, 0, -10, 0, -10, 0, -11, 0, -11, 0, 0, 0, 0, 0, -13, 0, -13,$FF
arp_DLead_ARP:	db	0, 0, 0, -5, -5, -9, -9, 0, 0,$FE,0
arp_DLead_Arpsdafasdf:	db	0, 0, 0, -4, -4, -9, -9, 0, 0,$FE,1
arp_DLead_Arp:	db	0, 0, 0, -3, -3, -8, -8, 0, 0,$FE,1
arp_LeadSPK:	db	12, 0,$FF
arp_DLead_Arsdafasdfsp:	db	0, 0, 0, -5, -5, -8, -8, 0, 0,$FE,1
arp_ARP_C0C_BOUNCE:	db	0, 12, 12, 0, 0, 0, 0,$FE,0
arp_DLeadTAIL:	db	0, 0,$FF

; ================================================================
; Pulse/Wave sequences
; ================================================================

WaveTable:
   dw  wave_AutoGeneratedWave0
   dw  wave_AutoGeneratedWave1
   dw  wave_AutoGeneratedWave2

wave_AutoGeneratedWave0:  db  $00,$00,$ee,$ee,$00,$00,$00,$ee,$ee,$ee,$00,$00,$00,$ee,$ee,$ee
wave_AutoGeneratedWave1:  db  $00,$00,$0e,$ee,$ee,$00,$00,$00,$00,$ee,$ee,$ee,$ee,$00,$00,$00
wave_AutoGeneratedWave2:  db  $00,$00,$00,$ee,$ee,$ee,$00,$00,$00,$00,$00,$00,$ee,$ee,$ee,$ee


waveseq_WaveBass_Phase:   db  0,0,0,1,1,1,2,2,2,$FF

;WARNING NOISE MODE IS NOT DETECTED, YOU MUST MANUALLY DISABLE DUTYMACRO ON NOISE INSTRUMENTS

waveseq_DLead:   db  0,2,1,0,0,0,0,1,1,1,1,$FE,3
waveseq_BassSPKFade:   db  2,1,0,$FE,1
waveseq_DLeadmMONTYSDUMP:   db  0,2,1,0,0,0,0,1,1,1,1,$FE,3
waveseq_DLead_ARP:   db  0,2,1,2,2,2,1,1,1,$FE,3
waveseq_DLead_Arpsdafasdf:   db  0,2,1,2,2,2,1,1,1,$FE,3
waveseq_DLead_Arp:   db  0,2,1,2,2,2,1,1,1,$FE,3
waveseq_LeadSPK:   db  0,2,1,2,2,1,$FE,3
waveseq_DLead_Arsdafasdfsp:   db  0,2,1,2,2,2,1,1,1,$FE,3
waveseq_Ins_B:   db  1,0,2,1,$FF
waveseq_ARP_C0C_BOUNCE:   db  0,2,1,2,2,2,1,1,1,$FE,3
waveseq_DLeadTAIL:   db  0,0,0,0,1,1,1,1,$FE,0

; ================================================================
; Vibrato sequences
; Must be terminated with a loop command!
; ================================================================

;Deflemask2DevSound DOES NOT SUPPORT Vibrato


; ================================================================
; Instruments
; ================================================================

InstrumentTable:
   const_def
   dins    DLead
   dins    BassSPKFade
   dins    WaveBass_Phase
   dins    Symbol
   dins    SKick
   dins    DLeadmMONTYSDUMP
   dins    DLead_ARP
   dins    DLead_Arpsdafasdf
   dins    DLead_Arp
   dins    LeadSPK
   dins    DLead_Arsdafasdfsp
   dins    Ins_B
   dins    ARP_C0C_BOUNCE
   dins    DLeadTAIL


; Instrument format: [no reset flag],[voltable id],[arptable id],[wavetable id],[vibtable id]
; _ for no table
; !!! REMEMBER TO ADD INSTRUMENTS TO THE INSTRUMENT POINTER TABLE !!!
ins_DLead:    Instrument  0,DLead,DLead,_,_
ins_BassSPKFade:    Instrument  0,BassSPKFade,BassSPKFade,_,_
ins_WaveBass_Phase:    Instrument  0,WaveBass_Phase,WaveBass_Phase,WaveBass_Phase,_
ins_Symbol:    Instrument  0,Symbol,Symbol,_,_
ins_SKick:    Instrument  0,SKick,SKick,_,_
ins_DLeadmMONTYSDUMP:    Instrument  0,DLeadmMONTYSDUMP,DLeadmMONTYSDUMP,_,_
ins_DLead_ARP:    Instrument  0,DLead_ARP,DLead_ARP,_,_
ins_DLead_Arpsdafasdf:    Instrument  0,DLead_Arpsdafasdf,DLead_Arpsdafasdf,_,_
ins_DLead_Arp:    Instrument  0,DLead_Arp,DLead_Arp,_,_
ins_LeadSPK:    Instrument  0,LeadSPK,LeadSPK,_,_
ins_DLead_Arsdafasdfsp:    Instrument  0,DLead_Arsdafasdfsp,DLead_Arsdafasdfsp,_,_
ins_Ins_B:    Instrument  0,Ins_B,_,_,_
ins_ARP_C0C_BOUNCE:    Instrument  0,ARP_C0C_BOUNCE,ARP_C0C_BOUNCE,_,_
ins_DLeadTAIL:    Instrument  0,DLeadTAIL,DLeadTAIL,_,_

; =================================================================

;Currently Deflemask2DevSound does not find where the pattern loops

PT_Light_Hearted_Massacre:  dw  Light_Hearted_Massacre_CH1,Light_Hearted_Massacre_CH2,Light_Hearted_Massacre_CH3,Light_Hearted_Massacre_CH4

Light_Hearted_Massacre_CH1:
   db  SetLoopPoint
   dbw CallSection,.block0
   dbw CallSection,.block1
   dbw CallSection,.block2
   dbw CallSection,.block3
   dbw CallSection,.block4
   dbw CallSection,.block5
   dbw CallSection,.block6
   dbw CallSection,.block7
   dbw CallSection,.block8
   dbw CallSection,.block9
   dbw CallSection,.block10
   dbw CallSection,.block11
   dbw CallSection,.block12
   dbw CallSection,.block13
   dbw CallSection,.block14
   dbw CallSection,.block15
   dbw CallSection,.block16
   dbw CallSection,.block17
   dbw CallSection,.block18
   dbw CallSection,.block19
   dbw CallSection,.block20
   dbw CallSection,.block21
   dbw CallSection,.block22
   dbw CallSection,.block23
   dbw CallSection,.block24
   dbw CallSection,.block25
   dbw CallSection,.block26
   dbw CallSection,.block27
   dbw CallSection,.block28
   dbw CallSection,.block29
   dbw CallSection,.block30
   dbw CallSection,.block31
   dbw CallSection,.block32
   dbw CallSection,.block33
   dbw CallSection,.block34
   dbw CallSection,.block35
   dbw CallSection,.block36
   dbw CallSection,.block37
   dbw CallSection,.block38
   dbw CallSection,.block39
   dbw CallSection,.block40
   db  GotoLoopPoint
   db  EndChannel

.block0
   db  SetInstrument,id_DLead
   db  G#4,1
   db  A#4,3
   db  C_4,4
   db  C#5,4
   db  C_4,8
   db  C_4,1
   db  C#5,3
   db  D#5,4
   db  C#5,8
   db  A#4,1
   db  C_4,3
   db  G#4,4
   db  F_4,12
   db  D#4,1
   db  F_4,3
   db  F_4,4
   ret

.block1
   db  SetInstrument,id_DLead
   db  F#4,4
   db  G#4,4
   db  A#4,4
   db  A_4,8
   db  A_4,1
   db  A#4,3
   db  C_4,8
   db  C_4,1
   db  C#5,3
   db  F#4,4
   db  F_5,4
   db  C#5,1
   db  D#5,7
   db  C#5,4
   db  C_4,8
   ret

.block2
   db  SetInstrument,id_DLead
   db  D#5,1
   db  F_5,3
   db  F_5,4
   db  F_5,4
   db  F_5,8
   db  G#5,4
   db  A#5,4
   db  F_5,4
   db  D#5,6
   db  F_5,2
   db  G#5,6
   db  A#5,2
   db  F_5,4
   db  SetInstrument,id_DLeadmMONTYSDUMP
   db  F_5,8
   db  SetInstrument,id_DLead
   db  A#4,2
   db  C_4,2
   ret

.block3
   db  SetInstrument,id_DLead
   db  C_4,1
   db  C#5,3
   db  D#5,4
   db  F_5,4
   db  D#5,8
   db  A#4,1
   db  C_4,3
   db  G#4,4
   db  C_4,4
   db  A#4,16
   db  A#3,8
   db  F_4,4
   db  G#4,4
   ret

.block4
   db  SetInstrument,id_DLead
   db  A#4,4
   db  G#4,2
   db  rest,2
   db  A#4,4
   db  C_4,2
   db  C#5,6
   db  D#5,2
   db  C#5,2
   db  C_4,2
   db  C#5,2
   db  C_4,4
   db  A#4,4
   db  G#4,2
   db  rest,2
   db  A#4,4
   db  C_4,2
   db  C#5,6
   db  D#5,2
   db  C#5,2
   db  C_4,2
   db  C#5,2
   db  D#5,4
   ret

.block5
   db  SetInstrument,id_DLead
   db  F_5,4
   db  G#5,2
   db  rest,2
   db  A#5,4
   db  G#5,2
   db  A#5,4
   db  F_5,2
   db  G#5,2
   db  F_5,2
   db  A#5,2
   db  G#5,2
   db  A#5,2
   db  C_5,2
   db  C#6,8
   db  D#6,8
   db  C#6,8
   db  C_5,8
   ret

.block6
   db  SetInstrument,id_DLead
   db  A#4,4
   db  G#4,2
   db  rest,2
   db  A#4,4
   db  C#5,2
   db  D#5,1
   db  F_5,5
   db  C#5,2
   db  D#5,2
   db  C#5,2
   db  C_4,2
   db  C#5,4
   db  A#4,4
   db  G#4,2
   db  rest,2
   db  A#4,4
   db  C#5,2
   db  D#5,1
   db  F_5,5
   db  C#5,2
   db  D#5,2
   db  C#5,2
   db  C_4,2
   db  C#5,4
   ret

.block7
   db  SetInstrument,id_DLead
   db  F_5,4
   db  G#5,2
   db  rest,2
   db  A#5,4
   db  F_5,2
   db  G#5,4
   db  F_5,2
   db  G#5,2
   db  D#5,2
   db  F_5,2
   db  G#5,2
   db  A#5,2
   db  C_5,2
   db  C#6,8
   db  C_5,8
   db  A#5,8
   db  G#5,8
   ret

.block8
   db  SetInstrument,id_DLead
   db  A#5,4
   db  C_5,4
   db  C#6,2
   db  G#5,2
   db  A#5,2
   db  F_5,2
   db  G#5,2
   db  D#5,2
   db  F_5,2
   db  C#5,2
   db  D#5,4
   db  F#5,1
   db  G#5,3
   db  F_5,4
   db  C#5,4
   db  D#5,4
   db  F#5,1
   db  G#5,3
   db  F_5,2
   db  D#5,2
   db  F_5,2
   db  C#5,2
   db  D#5,2
   db  C_4,6
   ret

.block9
   db  SetInstrument,id_DLead
   db  C_4,1
   db  C#5,3
   db  C#5,2
   db  C#5,2
   db  C#5,4
   db  C_4,4
   db  A#4,2
   db  C_4,2
   db  C#5,2
   db  G#5,2
   db  F_5,4
   db  D#5,4
   db  F_5,2
   db  rest,2
   db  D#5,2
   db  F_5,4
   db  G#5,6
   db  A#5,2
   db  rest,2
   db  G#5,2
   db  A#5,4
   db  C_5,6
   ret

.block10
   db  SetInstrument,id_DLead
   db  C_5,1
   db  C#6,3
   db  D#6,2
   db  rest,2
   db  C_5,1
   db  C#6,3
   db  C_5,4
   db  A#5,2
   db  G#5,2
   db  F_5,2
   db  G#5,2
   db  F_5,4
   db  D#5,2
   db  rest,2
   db  A#4,4
   db  A#4,1
   db  G#4,3
   db  C#5,4
   db  C#5,1
   db  C_4,3
   db  D#5,4
   db  D#5,1
   db  C#5,3
   db  F_5,4
   db  F#5,4
   ret

.block11
   db  SetInstrument,id_DLead
   db  D#5,1
   db  F_5,7
   db  F_5,2
   db  F#5,2
   db  C#5,2
   db  F_5,2
   db  F#5,2
   db  C#5,2
   db  F_5,2
   db  F#5,2
   db  C#5,4
   db  F#5,4
   db  D#5,1
   db  F_5,7
   db  G#5,2
   db  A#5,2
   db  F_5,2
   db  G#5,2
   db  A#5,2
   db  C_5,2
   db  C#6,2
   db  D#6,2
   db  C#6,2
   db  C_5,2
   db  A#5,2
   db  G#5,2
   ret

.block12
   db  SetInstrument,id_DLead
   db  G#5,1
   db  A#5,31
   db  G#5,16
   db  C#6,12
   db  C_5,2
   db  B_5,2
   ret

.block13
   db  SetInstrument,id_DLead
   db  G#5,1
   db  A#5,31
   db  A#4,8
   db  F_5,8
   db  A#5,8
   db  C#6,8
   ret

.block14
   db  SetInstrument,id_DLead
   db  D#6,1
   db  F_6,31
   db  D#6,16
   db  G#6,12
   db  G_6,2
   db  F#6,2
   ret

.block15
   db  SetInstrument,id_DLead
   db  D#6,1
   db  F_6,31
   db  C#5,4
   db  C_4,4
   db  C#5,4
   db  D#5,4
   db  C#5,4
   db  C_4,4
   db  G#4,4
   db  D#4,4
   ret

.block16
   db  SetInstrument,id_Ins_B
   db  A#3,4
   db  F_4,4
   db  G#4,4
   db  G#4,1
   db  A#4,19
   db  A#3,4
   db  A#3,4
   db  C_3,4
   db  A#3,20
   ret

.block17
   db  SetInstrument,id_Ins_B
   db  A#3,4
   db  C_3,4
   db  C#4,4
   db  D#3,1
   db  F_3,19
   db  F_3,4
   db  D#3,4
   db  G#3,4
   db  F_3,20
   ret

.block18
   db  SetInstrument,id_Ins_B
   db  A#3,4
   db  C_3,4
   db  C#4,4
   db  D#4,1
   db  F_4,19
   db  F_4,4
   db  D#4,4
   db  G#4,4
   db  F_4,20
   ret

.block19
   db  SetInstrument,id_Ins_B
   db  F_4,4
   db  F_4,4
   db  G#4,4
   db  G#4,1
   db  A#4,19
   db  A#4,4
   db  G#4,4
   db  C_4,1
   db  C#5,3
   db  C_4,4
   db  C#5,4
   db  D#5,4
   db  C#5,2
   db  C_4,2
   db  G#4,2
   db  D#4,2
   ret

.block20
   db  SetInstrument,id_DLead
   db  A#4,4
   db  G#4,2
   db  rest,2
   db  A#4,4
   db  C_4,2
   db  C#5,6
   db  D#5,2
   db  C#5,2
   db  C_4,2
   db  C#5,2
   db  C_4,4
   db  A#4,4
   db  G#4,2
   db  rest,2
   db  A#4,4
   db  C_4,2
   db  C#5,6
   db  D#5,2
   db  C#5,2
   db  C_4,2
   db  C#5,2
   db  D#5,4
   ret

.block21
   db  SetInstrument,id_DLead
   db  F_5,4
   db  G#5,2
   db  rest,2
   db  A#5,4
   db  G#5,2
   db  A#5,4
   db  F_5,2
   db  G#5,2
   db  F_5,2
   db  A#5,2
   db  G#5,2
   db  A#5,2
   db  C_5,2
   db  C#6,8
   db  D#6,8
   db  C#6,8
   db  C_5,8
   ret

.block22
   db  SetInstrument,id_DLead
   db  A#4,4
   db  G#4,2
   db  rest,2
   db  A#4,4
   db  C#5,2
   db  D#5,1
   db  F_5,5
   db  C#5,2
   db  D#5,2
   db  C#5,2
   db  C_4,2
   db  C#5,4
   db  A#4,4
   db  G#4,2
   db  rest,2
   db  A#4,4
   db  C#5,2
   db  D#5,1
   db  F_5,5
   db  C#5,2
   db  D#5,2
   db  C#5,2
   db  C_4,2
   db  C#5,4
   ret

.block23
   db  SetInstrument,id_DLead
   db  F_5,4
   db  G#5,2
   db  rest,2
   db  A#5,4
   db  F_5,2
   db  G#5,4
   db  F_5,2
   db  G#5,2
   db  D#5,2
   db  F_5,2
   db  G#5,2
   db  A#5,2
   db  C_5,2
   db  C#6,8
   db  C_5,8
   db  A#5,8
   db  G#5,8
   ret

.block24
   db  SetInstrument,id_DLead
   db  A#5,4
   db  C_5,4
   db  C#6,2
   db  G#5,2
   db  A#5,2
   db  F_5,2
   db  G#5,2
   db  D#5,2
   db  F_5,2
   db  C#5,2
   db  D#5,4
   db  F#5,1
   db  G#5,3
   db  F_5,4
   db  C#5,4
   db  D#5,4
   db  F#5,1
   db  G#5,3
   db  F_5,2
   db  D#5,2
   db  F_5,2
   db  C#5,2
   db  D#5,2
   db  C_4,6
   ret

.block25
   db  SetInstrument,id_DLead
   db  C_4,1
   db  C#5,3
   db  C#5,2
   db  C#5,2
   db  C#5,4
   db  C_4,4
   db  A#4,2
   db  C_4,2
   db  C#5,2
   db  G#5,2
   db  F_5,4
   db  D#5,4
   db  F_5,2
   db  rest,2
   db  D#5,2
   db  F_5,4
   db  G#5,6
   db  A#5,2
   db  rest,2
   db  G#5,2
   db  A#5,4
   db  C_5,6
   ret

.block26
   db  SetInstrument,id_DLead
   db  C_5,1
   db  C#6,3
   db  D#6,2
   db  rest,2
   db  C_5,1
   db  C#6,3
   db  C_5,4
   db  A#5,2
   db  G#5,2
   db  F_5,2
   db  G#5,2
   db  F_5,4
   db  D#5,2
   db  rest,2
   db  A#4,4
   db  A#4,1
   db  G#4,3
   db  C#5,4
   db  C#5,1
   db  C_4,3
   db  D#5,4
   db  D#5,1
   db  C#5,3
   db  F_5,4
   db  F#5,4
   ret

.block27
   db  SetInstrument,id_DLead
   db  D#5,1
   db  F_5,7
   db  F_5,2
   db  F#5,2
   db  C#5,2
   db  F_5,2
   db  F#5,2
   db  C#5,2
   db  F_5,2
   db  F#5,2
   db  C#5,4
   db  F#5,4
   db  D#5,1
   db  F_5,7
   db  G#5,2
   db  A#5,2
   db  F_5,2
   db  G#5,2
   db  A#5,2
   db  C_5,2
   db  C#6,2
   db  D#6,2
   db  C#6,2
   db  C_5,2
   db  A#5,2
   db  G#5,2
   ret

.block28
   db  SetInstrument,id_DLead
   db  G#5,1
   db  A#5,3
   db  C#6,4
   db  C_5,2
   db  A#5,2
   db  C_5,2
   db  C#6,2
   db  D#6,4
   db  C#6,4
   db  C_5,4
   db  A#5,4
   db  A#5,1
   db  C#6,3
   db  F_5,4
   db  G#5,4
   db  C#5,4
   db  F_5,4
   db  F#5,4
   db  F_5,2
   db  D#5,2
   db  C#5,2
   db  C_4,2
   ret

.block29
   db  SetInstrument,id_DLead
   db  C#5,2
   db  D#5,2
   db  A#4,2
   db  C#5,2
   db  D#5,1
   db  F_5,3
   db  A#5,2
   db  G#5,2
   db  A#5,2
   db  C_5,2
   db  A#5,2
   db  C_5,2
   db  C#6,2
   db  C_5,2
   db  C#6,2
   db  D#6,2
   db  C#6,4
   db  C_5,4
   db  C#6,4
   db  D#6,4
   db  F_6,2
   db  F#6,2
   db  F_6,2
   db  D#6,2
   db  F_6,2
   db  D#6,2
   db  C#6,2
   db  C_5,2
   ret

.block30
   db  SetInstrument,id_DLead
   db  G#5,1
   db  A#5,3
   db  G#5,4
   db  A#5,2
   db  C_5,2
   db  A#5,2
   db  G#5,2
   db  A#5,2
   db  F_5,2
   db  G#5,2
   db  F_5,2
   db  D#5,4
   db  C#5,4
   db  F_5,2
   db  F#5,2
   db  F_5,2
   db  D#5,2
   db  C#5,2
   db  D#5,2
   db  C#5,2
   db  C_4,2
   db  C#5,4
   db  F_5,2
   db  F#5,2
   db  F_5,2
   db  D#5,2
   db  C#5,2
   db  C_4,2
   ret

.block31
   db  SetInstrument,id_DLead
   db  G#4,1
   db  A#4,3
   db  C#5,4
   db  A#4,1
   db  C_4,3
   db  D#5,4
   db  C#5,4
   db  F_5,4
   db  D#5,4
   db  F#5,4
   db  F_5,4
   db  A#5,2
   db  G#5,2
   db  A#5,2
   db  C_5,2
   db  C#6,2
   db  A#5,2
   db  G#5,4
   db  F#5,4
   db  F_5,4
   db  C#5,4
   ret

.block32
   db  SetInstrument,id_Ins_B
   db  D#5,1
   db  F_5,3
   db  D#5,4
   db  C_4,1
   db  C#5,5
   db  C_4,2
   db  A#4,6
   db  G#4,2
   db  F_4,6
   db  D#4,2
   db  C#4,4
   db  SetInstrument,id_DLead
   db  C_3,4
   db  C#4,4
   db  D#4,4
   db  F_4,4
   db  F#4,4
   db  F_4,4
   db  C_3,4
   ret

.block33
   db  SetInstrument,id_DLead
   db  C#4,2
   db  D#4,2
   db  F_4,2
   db  F#4,2
   db  F_4,4
   db  D#4,4
   db  F_4,4
   db  C_3,4
   db  C#4,4
   db  C_3,4
   db  C#4,2
   db  D#4,2
   db  F_4,2
   db  F#4,2
   db  F_4,4
   db  F_4,2
   db  G#4,2
   db  C_4,4
   db  A#4,2
   db  G#4,2
   db  D#4,4
   db  F#4,1
   db  G#4,3
   ret

.block34
   db  SetInstrument,id_DLead
   db  A#4,4
   db  G#4,4
   db  F_4,4
   db  D#4,4
   db  C_3,1
   db  C#4,5
   db  C_3,2
   db  C_3,1
   db  C#4,7
   db  A#3,4
   db  G#3,2
   db  F_3,2
   db  A#3,4
   db  C#4,2
   db  C_3,2
   db  C#4,4
   db  F_4,2
   db  D#4,2
   db  C_3,4
   db  C_3,2
   db  A#3,2
   ret

.block35
   db  SetInstrument,id_DLead
   db  C#4,8
   db  C#4,1
   db  D#4,7
   db  F_4,8
   db  G#4,8
   db  A#4,1
   db  C_4,5
   db  A#4,2
   db  C#5,6
   db  C_4,2
   db  D#5,2
   db  rest,2
   db  D#5,4
   db  C_4,4
   db  C#5,4
   ret

.block36
   db  SetInstrument,id_DLead
   db  G#4,1
   db  A#4,31
   db  F#4,1
   db  G#4,23
   db  A#4,4
   db  G#4,4
   ret

.block37
   db  SetInstrument,id_DLead
   db  D#4,1
   db  F_4,63
   ret

.block38
   db  SetInstrument,id_DLead
   db  C_3,1
   db  C#4,31
   db  D#4,24
   db  D#4,4
   db  C#4,4
   ret

.block39
   db  SetInstrument,id_DLead
   db  G#3,1
   db  A#3,63
   ret

.block40
   db  SetInstrument,id_DLeadTAIL
   db  A#3,64
   ret

Light_Hearted_Massacre_CH2:
   db  SetLoopPoint
   dbw CallSection,.block0
   dbw CallSection,.block1
   dbw CallSection,.block2
   dbw CallSection,.block3
   dbw CallSection,.block4
   dbw CallSection,.block5
   dbw CallSection,.block6
   dbw CallSection,.block7
   dbw CallSection,.block8
   dbw CallSection,.block9
   dbw CallSection,.block10
   dbw CallSection,.block11
   dbw CallSection,.block12
   dbw CallSection,.block13
   dbw CallSection,.block14
   dbw CallSection,.block15
   dbw CallSection,.block16
   dbw CallSection,.block17
   dbw CallSection,.block18
   dbw CallSection,.block19
   dbw CallSection,.block20
   dbw CallSection,.block21
   dbw CallSection,.block22
   dbw CallSection,.block23
   dbw CallSection,.block24
   dbw CallSection,.block25
   dbw CallSection,.block26
   dbw CallSection,.block27
   dbw CallSection,.block28
   dbw CallSection,.block29
   dbw CallSection,.block30
   dbw CallSection,.block31
   dbw CallSection,.block32
   dbw CallSection,.block33
   dbw CallSection,.block34
   dbw CallSection,.block35
   dbw CallSection,.block36
   dbw CallSection,.block37
   dbw CallSection,.block38
   dbw CallSection,.block39
   dbw CallSection,.block40
   db  GotoLoopPoint
   db  EndChannel

.block0
   db  SetInstrument,id_BassSPKFade
   db  A#3,12
   db  G#3,16
   db  F#3,16
   db  F_3,12
   db  F_3,8
   ret

.block1
   db  SetInstrument,id_BassSPKFade
   db  D#3,12
   db  F_3,20
   db  F#3,12
   db  G#3,12
   db  G#3,8
   ret

.block2
   db  SetInstrument,id_BassSPKFade
   db  A#3,12
   db  C_3,20
   db  C#4,12
   db  D#5,16
   db  D#5,4
   ret

.block3
   db  SetInstrument,id_BassSPKFade
   db  F#3,12
   db  G#3,20
   db  A#3,32
   ret

.block4
   db  SetInstrument,id_DLead_ARP
   db  A#4,12
   db  A#4,4
   db  SetInstrument,id_LeadSPK
   db  A#3,2
   db  A#3,2
   db  C_3,4
   db  C#4,8
   db  SetInstrument,id_DLead_ARP
   db  A#4,12
   db  A#4,4
   db  SetInstrument,id_LeadSPK
   db  A#3,2
   db  C_3,2
   db  C#4,2
   db  F_4,2
   db  SetInstrument,id_DLead_ARP
   db  A#4,4
   db  SetInstrument,id_DLead_Arpsdafasdf
   db  C_4,4
   ret

.block5
   db  SetInstrument,id_DLead_Arp
   db  C#5,12
   db  C#5,4
   db  SetInstrument,id_LeadSPK
   db  D#4,1
   db  F_4,3
   db  D#4,4
   db  C#4,4
   db  F_4,4
   db  SetInstrument,id_DLead_Arp
   db  C#5,12
   db  C#5,4
   db  SetInstrument,id_LeadSPK
   db  A#4,2
   db  C_4,2
   db  A#4,2
   db  C#5,2
   db  C_4,4
   db  SetInstrument,id_DLead_Arpsdafasdf
   db  C_4,4
   ret

.block6
   db  SetInstrument,id_DLead_ARP
   db  A#4,12
   db  A#4,4
   db  SetInstrument,id_LeadSPK
   db  A#4,2
   db  G#4,4
   db  A#4,2
   db  D#4,1
   db  F_4,3
   db  A#4,4
   db  SetInstrument,id_DLead_ARP
   db  A#4,12
   db  A#4,4
   db  SetInstrument,id_LeadSPK
   db  A#4,2
   db  C_4,2
   db  A#4,2
   db  C#5,2
   db  SetInstrument,id_DLead_ARP
   db  A#4,4
   db  SetInstrument,id_DLead_Arpsdafasdf
   db  C_4,4
   ret

.block7
   db  SetInstrument,id_DLead_Arp
   db  C#5,12
   db  C#5,4
   db  SetInstrument,id_LeadSPK
   db  F_5,2
   db  D#5,2
   db  C#5,2
   db  C_4,2
   db  G#4,1
   db  A#4,7
   db  SetInstrument,id_DLead_Arp
   db  C#5,8
   db  SetInstrument,id_LeadSPK
   db  F_5,4
   db  SetInstrument,id_DLead_Arp
   db  C#5,2
   db  SetInstrument,id_LeadSPK
   db  F#5,2
   db  G#5,4
   db  A#5,1
   db  C_5,3
   db  SetInstrument,id_DLead_Arp
   db  C#5,4
   db  SetInstrument,id_DLead_Arpsdafasdf
   db  C_4,4
   ret

.block8
   db  SetInstrument,id_DLead_ARP
   db  A#4,12
   db  A#4,4
   db  SetInstrument,id_LeadSPK
   db  D#5,1
   db  F_5,5
   db  G#5,2
   db  D#5,4
   db  C#5,4
   db  SetInstrument,id_DLead_ARP
   db  A#4,12
   db  A#4,4
   db  SetInstrument,id_LeadSPK
   db  G#4,1
   db  A#4,5
   db  C_4,2
   db  SetInstrument,id_DLead_ARP
   db  A#4,4
   db  SetInstrument,id_DLead_Arpsdafasdf
   db  C_4,4
   ret

.block9
   db  SetInstrument,id_DLead_Arp
   db  C#5,12
   db  C#5,4
   db  SetInstrument,id_LeadSPK
   db  D#5,4
   db  C#5,4
   db  C_4,2
   db  D#5,6
   db  SetInstrument,id_DLead_Arp
   db  C#5,12
   db  C#5,4
   db  SetInstrument,id_LeadSPK
   db  C_4,2
   db  C_4,2
   db  C#5,2
   db  C#5,2
   db  SetInstrument,id_DLead_Arp
   db  C#5,4
   db  SetInstrument,id_DLead_Arpsdafasdf
   db  C_4,4
   ret

.block10
   db  SetInstrument,id_DLead_ARP
   db  A#4,4
   db  SetInstrument,id_DLead_Arsdafasdfsp
   db  G#4,8
   db  SetInstrument,id_DLead_ARP
   db  A#4,4
   db  SetInstrument,id_LeadSPK
   db  A#4,4
   db  A#4,4
   db  G#4,4
   db  A#4,4
   db  SetInstrument,id_DLead_ARP
   db  A#4,4
   db  SetInstrument,id_DLead_Arpsdafasdf
   db  C_4,8
   db  SetInstrument,id_DLead_ARP
   db  A#4,4
   db  SetInstrument,id_LeadSPK
   db  C_4,4
   db  A#4,4
   db  SetInstrument,id_DLead_ARP
   db  A#4,4
   db  SetInstrument,id_DLead_Arpsdafasdf
   db  C_4,4
   ret

.block11
   db  SetInstrument,id_DLead_Arp
   db  C#5,4
   db  SetInstrument,id_DLead_Arpsdafasdf
   db  C_4,8
   db  SetInstrument,id_DLead_Arp
   db  C#5,4
   db  SetInstrument,id_LeadSPK
   db  C#5,4
   db  C#5,4
   db  C_4,4
   db  C#5,4
   db  SetInstrument,id_DLead_Arp
   db  C#5,12
   db  C#5,4
   db  SetInstrument,id_LeadSPK
   db  C#5,2
   db  D#5,2
   db  C_4,4
   db  SetInstrument,id_DLead_Arp
   db  C#5,4
   db  SetInstrument,id_DLead_Arpsdafasdf
   db  C_4,4
   ret

.block12
   db  SetInstrument,id_DLead
   db  ChannelVolume,10
   db  F_5,32
   db  D#5,32
   ret

.block13
   db  SetInstrument,id_DLead
   db  D#5,1
   db  F_5,63
   ret

.block14
   db  SetInstrument,id_DLead
   db  C#6,32
   db  C_5,32
   ret

.block15
   db  SetInstrument,id_DLead
   db  C#6,64
   ret

.block16
   db  SetInstrument,id_DLead
   db  C#5,32
   db  C_4,32
   ret

.block17
   db  SetInstrument,id_DLead
   db  D#5,32
   db  C#5,32
   ret

.block18
   db  SetInstrument,id_DLead
   db  F_5,32
   db  D#5,32
   ret

.block19
   db  SetInstrument,id_DLead
   db  F#5,32
   db  G#5,1
   db  A#5,15
   db  SetInstrument,id_DLeadmMONTYSDUMP
   db  A#5,16
   ret

.block20
   db  SetInstrument,id_DLead_ARP
   db  A#4,12
   db  A#4,4
   db  SetInstrument,id_LeadSPK
   db  A#3,2
   db  A#3,2
   db  C_3,4
   db  C#4,8
   db  SetInstrument,id_DLead_ARP
   db  A#4,12
   db  A#4,4
   db  SetInstrument,id_LeadSPK
   db  A#3,2
   db  C_3,2
   db  C#4,2
   db  F_4,2
   db  SetInstrument,id_DLead_ARP
   db  A#4,4
   db  SetInstrument,id_DLead_Arpsdafasdf
   db  C_4,4
   ret

.block21
   db  SetInstrument,id_DLead_Arp
   db  C#5,12
   db  C#5,4
   db  SetInstrument,id_LeadSPK
   db  D#4,1
   db  F_4,3
   db  D#4,4
   db  C#4,4
   db  F_4,4
   db  SetInstrument,id_DLead_Arp
   db  C#5,12
   db  C#5,4
   db  SetInstrument,id_LeadSPK
   db  A#4,2
   db  C_4,2
   db  A#4,2
   db  C#5,2
   db  C_4,4
   db  SetInstrument,id_DLead_Arpsdafasdf
   db  C_4,4
   ret

.block22
   db  SetInstrument,id_DLead_ARP
   db  A#4,12
   db  A#4,4
   db  SetInstrument,id_LeadSPK
   db  A#4,2
   db  G#4,4
   db  A#4,2
   db  D#4,1
   db  F_4,3
   db  A#4,4
   db  SetInstrument,id_DLead_ARP
   db  A#4,12
   db  A#4,4
   db  SetInstrument,id_LeadSPK
   db  A#4,2
   db  C_4,2
   db  A#4,2
   db  C#5,2
   db  SetInstrument,id_DLead_ARP
   db  A#4,4
   db  SetInstrument,id_DLead_Arpsdafasdf
   db  C_4,4
   ret

.block23
   db  SetInstrument,id_DLead_Arp
   db  C#5,12
   db  C#5,4
   db  SetInstrument,id_LeadSPK
   db  F_5,2
   db  D#5,2
   db  C#5,2
   db  C_4,2
   db  G#4,1
   db  A#4,7
   db  SetInstrument,id_DLead_Arp
   db  C#5,8
   db  SetInstrument,id_LeadSPK
   db  F_5,4
   db  SetInstrument,id_DLead_Arp
   db  C#5,2
   db  SetInstrument,id_LeadSPK
   db  F#5,2
   db  G#5,4
   db  A#5,1
   db  C_5,3
   db  SetInstrument,id_DLead_Arp
   db  C#5,4
   db  SetInstrument,id_DLead_Arpsdafasdf
   db  C_4,4
   ret

.block24
   db  SetInstrument,id_DLead_ARP
   db  A#4,12
   db  A#4,4
   db  SetInstrument,id_LeadSPK
   db  D#5,1
   db  F_5,5
   db  G#5,2
   db  D#5,4
   db  C#5,4
   db  SetInstrument,id_DLead_ARP
   db  A#4,12
   db  A#4,4
   db  SetInstrument,id_LeadSPK
   db  G#4,1
   db  A#4,5
   db  C_4,2
   db  SetInstrument,id_DLead_ARP
   db  A#4,4
   db  SetInstrument,id_DLead_Arpsdafasdf
   db  C_4,4
   ret

.block25
   db  SetInstrument,id_DLead_Arp
   db  C#5,12
   db  C#5,4
   db  SetInstrument,id_LeadSPK
   db  D#5,4
   db  C#5,4
   db  C_4,2
   db  D#5,6
   db  SetInstrument,id_DLead_Arp
   db  C#5,12
   db  C#5,4
   db  SetInstrument,id_LeadSPK
   db  C_4,2
   db  C_4,2
   db  C#5,2
   db  C#5,2
   db  SetInstrument,id_DLead_Arp
   db  C#5,4
   db  SetInstrument,id_DLead_Arpsdafasdf
   db  C_4,4
   ret

.block26
   db  SetInstrument,id_DLead_ARP
   db  A#4,4
   db  SetInstrument,id_DLead_Arsdafasdfsp
   db  G#4,8
   db  SetInstrument,id_DLead_ARP
   db  A#4,4
   db  SetInstrument,id_LeadSPK
   db  A#4,4
   db  A#4,4
   db  G#4,4
   db  A#4,4
   db  SetInstrument,id_DLead_ARP
   db  A#4,4
   db  SetInstrument,id_DLead_Arpsdafasdf
   db  C_4,8
   db  SetInstrument,id_DLead_ARP
   db  A#4,4
   db  SetInstrument,id_LeadSPK
   db  C_4,4
   db  A#4,4
   db  SetInstrument,id_DLead_ARP
   db  A#4,4
   db  SetInstrument,id_DLead_Arpsdafasdf
   db  C_4,4
   ret

.block27
   db  SetInstrument,id_DLead_Arp
   db  C#5,4
   db  SetInstrument,id_DLead_Arpsdafasdf
   db  C_4,8
   db  SetInstrument,id_DLead_Arp
   db  C#5,4
   db  SetInstrument,id_LeadSPK
   db  C#5,4
   db  C#5,4
   db  C_4,4
   db  C#5,4
   db  SetInstrument,id_DLead_Arp
   db  C#5,12
   db  C#5,4
   db  SetInstrument,id_LeadSPK
   db  C#5,2
   db  D#5,2
   db  C_4,4
   db  SetInstrument,id_DLead_Arp
   db  C#5,4
   db  SetInstrument,id_DLead_Arpsdafasdf
   db  C_4,4
   ret

.block28
   db  SetInstrument,id_ARP_C0C_BOUNCE
   db  A#4,8
   db  A#4,8
   db  A#4,8
   db  A#4,2
   db  rest,4
   db  G#4,2
   db  A#4,8
   db  A#4,8
   db  A#4,8
   db  A#4,2
   db  rest,2
   db  C_4,4
   ret

.block29
   db  SetInstrument,id_ARP_C0C_BOUNCE
   db  C#5,8
   db  C#5,8
   db  C#5,8
   db  C#5,2
   db  rest,4
   db  C_4,2
   db  C#5,8
   db  C#5,8
   db  C#5,8
   db  C#5,2
   db  rest,2
   db  C_4,4
   ret

.block30
   db  SetInstrument,id_ARP_C0C_BOUNCE
   db  A#4,8
   db  A#4,8
   db  A#4,8
   db  A#4,2
   db  rest,4
   db  G#4,2
   db  A#4,8
   db  A#4,8
   db  A#4,8
   db  A#4,2
   db  rest,2
   db  C_4,4
   ret

.block31
   db  SetInstrument,id_ARP_C0C_BOUNCE
   db  C#5,8
   db  C#5,8
   db  C#5,8
   db  C#5,2
   db  rest,4
   db  C_4,2
   db  C#5,8
   db  C#5,8
   db  C#5,8
   db  C#5,2
   db  rest,2
   db  C_4,4
   ret

.block32
   db  SetInstrument,id_ARP_C0C_BOUNCE
   db  A#4,4
   db  G#4,2
   db  rest,2
   db  A#4,4
   db  C_4,2
   db  rest,2
   db  A#4,8
   db  A#4,2
   db  rest,4
   db  G#4,2
   db  A#4,4
   db  G#4,2
   db  rest,2
   db  A#4,4
   db  C_4,2
   db  rest,2
   db  A#4,8
   db  A#4,2
   db  rest,4
   db  C_4,2
   ret

.block33
   db  SetInstrument,id_ARP_C0C_BOUNCE
   db  C#5,4
   db  C_4,2
   db  rest,2
   db  C#5,4
   db  D#5,2
   db  rest,2
   db  C#5,8
   db  C#5,2
   db  rest,4
   db  C_4,2
   db  C#5,4
   db  C_4,2
   db  rest,2
   db  C#5,4
   db  D#5,2
   db  rest,2
   db  C#5,4
   db  D#5,2
   db  F_5,2
   db  C#5,2
   db  rest,2
   db  D#5,4
   ret

.block34
   db  SetInstrument,id_ARP_C0C_BOUNCE
   db  A#4,4
   db  G#4,2
   db  rest,2
   db  A#4,4
   db  C_4,2
   db  rest,2
   db  A#4,8
   db  A#4,2
   db  rest,4
   db  G#4,2
   db  A#4,4
   db  G#4,2
   db  rest,2
   db  A#4,4
   db  C_4,2
   db  rest,2
   db  A#4,8
   db  A#4,2
   db  rest,4
   db  C_4,2
   ret

.block35
   db  SetInstrument,id_ARP_C0C_BOUNCE
   db  C#5,4
   db  C_4,2
   db  rest,2
   db  C#5,4
   db  D#5,2
   db  rest,2
   db  C#5,8
   db  C#5,2
   db  rest,4
   db  C_4,2
   db  C#5,4
   db  C_4,2
   db  rest,2
   db  C#5,4
   db  D#5,2
   db  rest,2
   db  C#5,4
   db  D#5,2
   db  F_5,2
   db  C#5,2
   db  rest,2
   db  D#5,4
   ret

.block36
   db  SetInstrument,id_BassSPKFade
   db  F#4,4
   db  F#4,8
   db  F#4,20
   db  F#4,4
   db  F#4,8
   db  F#4,20
   ret

.block37
   db  SetInstrument,id_BassSPKFade
   db  A#4,4
   db  A#4,8
   db  A#4,20
   db  A#4,4
   db  A#4,8
   db  A#4,20
   ret

.block38
   db  SetInstrument,id_BassSPKFade
   db  F#4,4
   db  F#4,8
   db  F#4,20
   db  F#4,4
   db  F#4,8
   db  F#4,20
   ret

.block39
   db  SetInstrument,id_BassSPKFade
   db  A#4,4
   db  A#4,8
   db  A#4,20
   db  A#4,4
   db  A#4,8
   db  A#4,20
   ret

.block40
   db  SetInstrument,id_BassSPKFade
   db  A#3,64
   ret

Light_Hearted_Massacre_CH3:
   db  SetLoopPoint
   dbw CallSection,.block0
   dbw CallSection,.block1
   dbw CallSection,.block2
   dbw CallSection,.block3
   dbw CallSection,.block4
   dbw CallSection,.block5
   dbw CallSection,.block6
   dbw CallSection,.block7
   dbw CallSection,.block8
   dbw CallSection,.block9
   dbw CallSection,.block10
   dbw CallSection,.block11
   dbw CallSection,.block12
   dbw CallSection,.block13
   dbw CallSection,.block14
   dbw CallSection,.block15
   dbw CallSection,.block16
   dbw CallSection,.block17
   dbw CallSection,.block18
   dbw CallSection,.block19
   dbw CallSection,.block20
   dbw CallSection,.block21
   dbw CallSection,.block22
   dbw CallSection,.block23
   dbw CallSection,.block24
   dbw CallSection,.block25
   dbw CallSection,.block26
   dbw CallSection,.block27
   dbw CallSection,.block28
   dbw CallSection,.block29
   dbw CallSection,.block30
   dbw CallSection,.block31
   dbw CallSection,.block32
   dbw CallSection,.block33
   dbw CallSection,.block34
   dbw CallSection,.block35
   dbw CallSection,.block36
   dbw CallSection,.block37
   dbw CallSection,.block38
   dbw CallSection,.block39
   dbw CallSection,.block40
   db  GotoLoopPoint
   db  EndChannel

.block0
   db  SetInstrument,id_WaveBass_Phase
   db  A#2,12
   db  G#2,16
   db  F#2,16
   db  F_2,12
   db  F_2,8
   ret

.block1
   db  SetInstrument,id_WaveBass_Phase
   db  D#2,12
   db  F_2,20
   db  F#2,12
   db  G#2,12
   db  G#2,8
   ret

.block2
   db  SetInstrument,id_WaveBass_Phase
   db  A#2,12
   db  C_2,20
   db  C#3,12
   db  D#3,16
   db  D#3,4
   ret

.block3
   db  SetInstrument,id_WaveBass_Phase
   db  F#2,12
   db  G#2,20
   db  A#2,32
   ret

.block4
   db  SetInstrument,id_WaveBass_Phase
   db  F#2,4
   db  F#3,4
   db  F#2,4
   db  F#3,4
   db  F#2,4
   db  F#3,4
   db  F#2,4
   db  F_3,4
   db  F#2,4
   db  F#3,4
   db  F#2,4
   db  F#3,4
   db  F#2,4
   db  F#3,4
   db  G#2,4
   db  G#3,4
   ret

.block5
   db  SetInstrument,id_WaveBass_Phase
   db  A#2,4
   db  A#3,4
   db  A#2,4
   db  A#3,4
   db  A#2,4
   db  A#3,4
   db  A#2,4
   db  G#2,4
   db  A#2,4
   db  A#3,4
   db  C_2,4
   db  C_3,4
   db  C#3,4
   db  C#4,4
   db  D#3,4
   db  D#4,4
   ret

.block6
   db  SetInstrument,id_WaveBass_Phase
   db  F#2,4
   db  F#3,4
   db  F#2,4
   db  F#3,4
   db  F#2,4
   db  F#3,4
   db  F#2,4
   db  F_3,4
   db  F#2,4
   db  F#3,4
   db  F#2,4
   db  F#3,4
   db  F#2,4
   db  F#3,4
   db  G#2,4
   db  G#3,4
   ret

.block7
   db  SetInstrument,id_WaveBass_Phase
   db  A#2,4
   db  A#3,4
   db  A#2,4
   db  A#3,4
   db  A#2,4
   db  A#3,4
   db  A#2,4
   db  G#2,4
   db  A#2,4
   db  A#3,4
   db  C_2,4
   db  C_3,4
   db  C#3,4
   db  C#4,4
   db  D#3,4
   db  D#4,4
   ret

.block8
   db  SetInstrument,id_WaveBass_Phase
   db  F#2,4
   db  F#3,4
   db  F#2,4
   db  F#3,4
   db  F#2,4
   db  F#3,4
   db  F#2,4
   db  F_3,4
   db  F#2,4
   db  F#3,4
   db  F#2,4
   db  F#3,4
   db  F#2,4
   db  F#3,4
   db  G#2,4
   db  G#3,4
   ret

.block9
   db  SetInstrument,id_WaveBass_Phase
   db  A#2,4
   db  A#3,4
   db  A#2,4
   db  A#3,4
   db  A#2,4
   db  A#3,4
   db  A#2,4
   db  G#2,4
   db  A#2,4
   db  A#3,4
   db  C_2,4
   db  C_3,4
   db  C#3,4
   db  C#4,4
   db  D#3,4
   db  D#4,4
   ret

.block10
   db  SetInstrument,id_WaveBass_Phase
   db  F#2,4
   db  F#3,4
   db  F#2,4
   db  F#3,4
   db  F#2,4
   db  F#3,4
   db  F#2,4
   db  F_3,4
   db  F#2,4
   db  F#3,4
   db  F#2,4
   db  F#3,4
   db  F#2,4
   db  F#3,4
   db  G#2,4
   db  G#3,4
   ret

.block11
   db  SetInstrument,id_WaveBass_Phase
   db  A#2,4
   db  A#3,4
   db  A#2,4
   db  A#3,4
   db  A#2,4
   db  A#3,4
   db  A#2,4
   db  G#2,4
   db  A#2,4
   db  A#3,4
   db  C_2,4
   db  C_3,4
   db  C#3,4
   db  C#4,4
   db  D#3,4
   db  D#4,4
   ret

.block12
   db  SetInstrument,id_WaveBass_Phase
   db  F#2,4
   db  F#3,4
   db  F#2,4
   db  F#3,4
   db  F#2,4
   db  F#3,4
   db  F#2,4
   db  F_3,4
   db  F#2,4
   db  F#3,4
   db  F#2,4
   db  F#3,4
   db  F#2,4
   db  F#3,4
   db  G#2,4
   db  G#3,4
   ret

.block13
   db  SetInstrument,id_WaveBass_Phase
   db  A#2,4
   db  A#3,4
   db  A#2,4
   db  A#3,4
   db  A#2,4
   db  A#3,4
   db  A#2,4
   db  G#2,4
   db  A#2,4
   db  A#3,4
   db  C_2,4
   db  C_3,4
   db  C#3,4
   db  C#4,4
   db  D#3,4
   db  D#4,4
   ret

.block14
   db  SetInstrument,id_WaveBass_Phase
   db  F#2,4
   db  F#3,4
   db  F#2,4
   db  F#3,4
   db  F#2,4
   db  F#3,4
   db  F#2,4
   db  F_3,4
   db  F#2,4
   db  F#3,4
   db  F#2,4
   db  F#3,4
   db  F#2,4
   db  F#3,4
   db  G#2,4
   db  G#3,4
   ret

.block15
   db  SetInstrument,id_WaveBass_Phase
   db  A#2,4
   db  A#3,4
   db  A#2,4
   db  A#3,4
   db  A#2,4
   db  A#3,4
   db  A#2,4
   db  G#2,4
   db  A#2,4
   db  A#3,4
   db  C_2,4
   db  C_3,4
   db  C#3,4
   db  C#4,4
   db  D#3,4
   db  D#4,4
   ret

.block16
   db  SetInstrument,id_WaveBass_Phase
   db  F#2,4
   db  F#3,28
   db  F#2,4
   db  F#3,28
   ret

.block17
   db  SetInstrument,id_WaveBass_Phase
   db  A#2,4
   db  A#3,28
   db  A#2,4
   db  A#3,12
   db  G#2,4
   db  G#3,12
   ret

.block18
   db  SetInstrument,id_WaveBass_Phase
   db  F#2,4
   db  F#3,28
   db  F#2,4
   db  F#3,28
   ret

.block19
   db  SetInstrument,id_WaveBass_Phase
   db  A#2,4
   db  A#3,28
   db  A#2,4
   db  A#3,4
   db  A#2,4
   db  A#3,4
   db  G#2,4
   db  G#3,4
   db  C#3,4
   db  C#4,4
   ret

.block20
   db  SetInstrument,id_WaveBass_Phase
   db  F#2,4
   db  F#3,4
   db  F#2,4
   db  F#3,4
   db  F#2,4
   db  F#3,4
   db  F#2,4
   db  F_3,4
   db  F#2,4
   db  F#3,4
   db  F#2,4
   db  F#3,4
   db  F#2,4
   db  F#3,4
   db  G#2,4
   db  G#3,4
   ret

.block21
   db  SetInstrument,id_WaveBass_Phase
   db  A#2,4
   db  A#3,4
   db  A#2,4
   db  A#3,4
   db  A#2,4
   db  A#3,4
   db  A#2,4
   db  G#2,4
   db  A#2,4
   db  A#3,4
   db  C_2,4
   db  C_3,4
   db  C#3,4
   db  C#4,4
   db  D#3,4
   db  D#4,4
   ret

.block22
   db  SetInstrument,id_WaveBass_Phase
   db  F#2,4
   db  F#3,4
   db  F#2,4
   db  F#3,4
   db  F#2,4
   db  F#3,4
   db  F#2,4
   db  F_3,4
   db  F#2,4
   db  F#3,4
   db  F#2,4
   db  F#3,4
   db  F#2,4
   db  F#3,4
   db  G#2,4
   db  G#3,4
   ret

.block23
   db  SetInstrument,id_WaveBass_Phase
   db  A#2,4
   db  A#3,4
   db  A#2,4
   db  A#3,4
   db  A#2,4
   db  A#3,4
   db  A#2,4
   db  G#2,4
   db  A#2,4
   db  A#3,4
   db  C_2,4
   db  C_3,4
   db  C#3,4
   db  C#4,4
   db  D#3,4
   db  D#4,4
   ret

.block24
   db  SetInstrument,id_WaveBass_Phase
   db  F#2,4
   db  F#3,4
   db  F#2,4
   db  F#3,4
   db  F#2,4
   db  F#3,4
   db  F#2,4
   db  F_3,4
   db  F#2,4
   db  F#3,4
   db  F#2,4
   db  F#3,4
   db  F#2,4
   db  F#3,4
   db  G#2,4
   db  G#3,4
   ret

.block25
   db  SetInstrument,id_WaveBass_Phase
   db  A#2,4
   db  A#3,4
   db  A#2,4
   db  A#3,4
   db  A#2,4
   db  A#3,4
   db  A#2,4
   db  G#2,4
   db  A#2,4
   db  A#3,4
   db  C_2,4
   db  C_3,4
   db  C#3,4
   db  C#4,4
   db  D#3,4
   db  D#4,4
   ret

.block26
   db  SetInstrument,id_WaveBass_Phase
   db  F#2,4
   db  F#3,4
   db  F#2,4
   db  F#3,4
   db  F#2,4
   db  F#3,4
   db  F#2,4
   db  F_3,4
   db  F#2,4
   db  F#3,4
   db  F#2,4
   db  F#3,4
   db  F#2,4
   db  F#3,4
   db  G#2,4
   db  G#3,4
   ret

.block27
   db  SetInstrument,id_WaveBass_Phase
   db  A#2,4
   db  A#3,4
   db  A#2,4
   db  A#3,4
   db  A#2,4
   db  A#3,4
   db  A#2,4
   db  G#2,4
   db  A#2,4
   db  A#3,4
   db  C_2,4
   db  C_3,4
   db  C#3,4
   db  C#4,4
   db  D#3,4
   db  D#4,4
   ret

.block28
   db  SetInstrument,id_WaveBass_Phase
   db  F#2,4
   db  F#3,4
   db  F#2,4
   db  F#3,4
   db  F#2,4
   db  F#3,4
   db  F#2,4
   db  F_3,4
   db  F#2,4
   db  F#3,4
   db  F#2,4
   db  F#3,4
   db  F#2,4
   db  F#3,4
   db  G#2,4
   db  G#3,4
   ret

.block29
   db  SetInstrument,id_WaveBass_Phase
   db  A#2,4
   db  A#3,4
   db  A#2,4
   db  A#3,4
   db  A#2,4
   db  A#3,4
   db  A#2,4
   db  G#2,4
   db  A#2,4
   db  A#3,4
   db  C_2,4
   db  C_3,4
   db  C#3,4
   db  C#4,4
   db  D#3,4
   db  D#4,4
   ret

.block30
   db  SetInstrument,id_WaveBass_Phase
   db  F#2,4
   db  F#3,4
   db  F#2,4
   db  F#3,4
   db  F#2,4
   db  F#3,4
   db  F#2,4
   db  F_3,4
   db  F#2,4
   db  F#3,4
   db  F#2,4
   db  F#3,4
   db  F#2,4
   db  F#3,4
   db  G#2,4
   db  G#3,4
   ret

.block31
   db  SetInstrument,id_WaveBass_Phase
   db  A#2,4
   db  A#3,4
   db  A#2,4
   db  A#3,4
   db  A#2,4
   db  A#3,4
   db  A#2,4
   db  G#2,4
   db  A#2,4
   db  A#3,4
   db  C_2,4
   db  C_3,4
   db  C#3,4
   db  C#4,4
   db  D#3,4
   db  D#4,4
   ret

.block32
   db  SetInstrument,id_WaveBass_Phase
   db  F#2,4
   db  F#3,4
   db  F#2,4
   db  F#3,4
   db  F#2,4
   db  F#3,4
   db  F#2,4
   db  F_3,4
   db  F#2,4
   db  F#3,4
   db  F#2,4
   db  F#3,4
   db  F#2,4
   db  F#3,4
   db  G#2,4
   db  G#3,4
   ret

.block33
   db  SetInstrument,id_WaveBass_Phase
   db  A#2,4
   db  A#3,4
   db  A#2,4
   db  A#3,4
   db  A#2,4
   db  A#3,4
   db  A#2,4
   db  G#2,4
   db  A#2,4
   db  A#3,4
   db  C_2,4
   db  C_3,4
   db  C#3,4
   db  C#4,4
   db  D#3,4
   db  D#4,4
   ret

.block34
   db  SetInstrument,id_WaveBass_Phase
   db  F#2,4
   db  F#3,4
   db  F#2,4
   db  F#3,4
   db  F#2,4
   db  F#3,4
   db  F#2,4
   db  F_3,4
   db  F#2,4
   db  F#3,4
   db  F#2,4
   db  F#3,4
   db  F#2,4
   db  F#3,4
   db  G#2,4
   db  G#3,4
   ret

.block35
   db  SetInstrument,id_WaveBass_Phase
   db  A#2,4
   db  A#3,4
   db  A#2,4
   db  A#3,4
   db  A#2,4
   db  A#3,4
   db  A#2,4
   db  G#2,4
   db  A#2,4
   db  A#3,4
   db  C_2,4
   db  C_3,4
   db  C#3,4
   db  C#4,4
   db  D#3,4
   db  D#4,4
   ret

.block36
   db  SetInstrument,id_WaveBass_Phase
   db  F#2,4
   db  F#3,4
   db  F#2,4
   db  F#3,4
   db  F#2,4
   db  F#3,4
   db  F#2,4
   db  F_3,4
   db  F#2,4
   db  F#3,4
   db  F#2,4
   db  F#3,4
   db  F#2,4
   db  F#3,4
   db  G#2,4
   db  G#3,4
   ret

.block37
   db  SetInstrument,id_WaveBass_Phase
   db  A#2,4
   db  A#3,4
   db  A#2,4
   db  A#3,4
   db  A#2,4
   db  A#3,4
   db  A#2,4
   db  G#2,4
   db  A#2,4
   db  A#3,4
   db  C_2,4
   db  C_3,4
   db  C#3,4
   db  C#4,4
   db  D#3,4
   db  D#4,4
   ret

.block38
   db  SetInstrument,id_WaveBass_Phase
   db  F#2,4
   db  F#3,4
   db  F#2,4
   db  F#3,4
   db  F#2,4
   db  F#3,4
   db  F#2,4
   db  F_3,4
   db  F#2,4
   db  F#3,4
   db  F#2,4
   db  F#3,4
   db  F#2,4
   db  F#3,4
   db  G#2,4
   db  G#3,4
   ret

.block39
   db  SetInstrument,id_WaveBass_Phase
   db  A#2,4
   db  A#3,4
   db  A#2,4
   db  A#3,4
   db  A#2,4
   db  A#3,4
   db  A#2,4
   db  G#2,4
   db  A#2,4
   db  A#3,4
   db  A#2,4
   db  G#2,4
   db  A#2,4
   db  G#2,4
   db  A#2,4
   db  G#2,4
   ret

.block40
   db  SetInstrument,id_WaveBass_Phase
   db  A#2,64
   ret

Light_Hearted_Massacre_CH4:
   db  SetLoopPoint
   dbw CallSection,.block0
   dbw CallSection,.block1
   dbw CallSection,.block2
   dbw CallSection,.block3
   dbw CallSection,.block4
   dbw CallSection,.block5
   dbw CallSection,.block6
   dbw CallSection,.block7
   dbw CallSection,.block8
   dbw CallSection,.block9
   dbw CallSection,.block10
   dbw CallSection,.block11
   dbw CallSection,.block12
   dbw CallSection,.block13
   dbw CallSection,.block14
   dbw CallSection,.block15
   dbw CallSection,.block16
   dbw CallSection,.block17
   dbw CallSection,.block18
   dbw CallSection,.block19
   dbw CallSection,.block20
   dbw CallSection,.block21
   dbw CallSection,.block22
   dbw CallSection,.block23
   dbw CallSection,.block24
   dbw CallSection,.block25
   dbw CallSection,.block26
   dbw CallSection,.block27
   dbw CallSection,.block28
   dbw CallSection,.block29
   dbw CallSection,.block30
   dbw CallSection,.block31
   dbw CallSection,.block32
   dbw CallSection,.block33
   dbw CallSection,.block34
   dbw CallSection,.block35
   dbw CallSection,.block36
   dbw CallSection,.block37
   dbw CallSection,.block38
   dbw CallSection,.block39
   dbw CallSection,.block40
   db  GotoLoopPoint
   db  EndChannel

.block0
   db  SetInstrument,id_Symbol
   db  E_4,4
   db  SetInstrument,id_SKick
   db  E_4,2
   db  rest,2
   db  E_4,2
   db  rest,2
   db  E_4,8
   db  SetInstrument,id_SKick
   db  D_4,2
   db  rest,2
   db  D_4,2
   db  D_4,2
   db  SetInstrument,id_Symbol
   db  E_4,8
   db  SetInstrument,id_SKick
   db  E_4,2
   db  rest,2
   db  E_4,2
   db  rest,2
   db  E_4,8
   db  SetInstrument,id_SKick
   db  E_4,2
   db  rest,2
   db  E_4,4
   db  SetInstrument,id_SKick
   db  E_4,2
   db  rest,2
   ret

.block1
   db  SetInstrument,id_Symbol
   db  E_4,4
   db  SetInstrument,id_SKick
   db  E_4,2
   db  rest,2
   db  E_4,2
   db  rest,2
   db  E_4,8
   db  SetInstrument,id_SKick
   db  D_4,2
   db  rest,2
   db  D_4,2
   db  D_4,2
   db  rest,2
   db  D_4,2
   db  SetInstrument,id_Symbol
   db  E_4,4
   db  SetInstrument,id_SKick
   db  D_4,2
   db  rest,2
   db  D_4,2
   db  rest,2
   db  E_4,8
   db  SetInstrument,id_SKick
   db  D_4,2
   db  D_4,2
   db  SetInstrument,id_Symbol
   db  E_4,4
   db  E_4,4
   ret

.block2
   db  SetInstrument,id_Symbol
   db  E_4,4
   db  SetInstrument,id_SKick
   db  D_4,2
   db  rest,2
   db  D_4,2
   db  rest,2
   db  E_4,2
   db  SetInstrument,id_SKick
   db  D_4,2
   db  D_4,2
   db  rest,2
   db  D_4,2
   db  rest,6
   db  D_4,2
   db  D_4,2
   db  SetInstrument,id_Symbol
   db  E_4,4
   db  SetInstrument,id_SKick
   db  D_4,2
   db  rest,2
   db  D_4,2
   db  rest,2
   db  SetInstrument,id_Symbol
   db  E_4,4
   db  SetInstrument,id_SKick
   db  D_4,2
   db  rest,2
   db  D_4,2
   db  rest,6
   db  SetInstrument,id_Symbol
   db  E_4,4
   ret

.block3
   db  SetInstrument,id_Symbol
   db  E_4,4
   db  SetInstrument,id_SKick
   db  E_4,2
   db  rest,2
   db  E_4,2
   db  rest,2
   db  E_4,2
   db  SetInstrument,id_SKick
   db  E_4,2
   db  rest,2
   db  E_4,2
   db  rest,4
   db  E_4,2
   db  rest,2
   db  E_4,2
   db  E_4,2
   db  SetInstrument,id_Symbol
   db  E_4,8
   db  E_5,8
   db  E_5,4
   db  SetInstrument,id_SKick
   db  D_5,2
   db  D_5,2
   db  SetInstrument,id_Symbol
   db  E_4,4
   db  SetInstrument,id_SKick
   db  E_4,2
   db  rest,2
   ret

.block4
   db  SetInstrument,id_SKick
   db  C#5,2
   db  rest,2
   db  C#5,4
   db  SetInstrument,id_SKick
   db  C#5,2
   db  rest,2
   db  C#5,4
   db  SetInstrument,id_SKick
   db  C#5,2
   db  rest,2
   db  C#5,4
   db  SetInstrument,id_SKick
   db  C#5,2
   db  rest,2
   db  C#5,2
   db  SetInstrument,id_SKick
   db  C#5,2
   db  C#5,2
   db  rest,2
   db  C#5,4
   db  SetInstrument,id_SKick
   db  C#5,2
   db  rest,2
   db  C#5,4
   db  SetInstrument,id_SKick
   db  C#5,2
   db  rest,2
   db  C#5,4
   db  SetInstrument,id_SKick
   db  C#5,2
   db  rest,2
   db  C#5,2
   db  C#5,2
   ret

.block5
   db  SetInstrument,id_SKick
   db  C#5,2
   db  rest,2
   db  C#5,4
   db  SetInstrument,id_SKick
   db  C#5,2
   db  rest,2
   db  C#5,4
   db  SetInstrument,id_SKick
   db  C#5,2
   db  rest,2
   db  C#5,4
   db  SetInstrument,id_SKick
   db  C#5,2
   db  rest,2
   db  C#5,2
   db  SetInstrument,id_SKick
   db  C#5,2
   db  C#5,2
   db  rest,2
   db  C#5,4
   db  SetInstrument,id_SKick
   db  C#5,2
   db  rest,2
   db  C#5,4
   db  SetInstrument,id_SKick
   db  C#5,2
   db  rest,2
   db  C#5,4
   db  SetInstrument,id_SKick
   db  C#5,2
   db  rest,2
   db  C#5,2
   db  C#5,2
   ret

.block6
   db  SetInstrument,id_SKick
   db  C#5,2
   db  rest,2
   db  C#5,4
   db  SetInstrument,id_SKick
   db  C#5,2
   db  rest,2
   db  C#5,4
   db  SetInstrument,id_SKick
   db  C#5,2
   db  rest,2
   db  C#5,4
   db  SetInstrument,id_SKick
   db  C#5,2
   db  rest,2
   db  C#5,2
   db  SetInstrument,id_SKick
   db  C#5,2
   db  C#5,2
   db  rest,2
   db  C#5,4
   db  SetInstrument,id_SKick
   db  C#5,2
   db  rest,2
   db  C#5,4
   db  SetInstrument,id_SKick
   db  C#5,2
   db  rest,2
   db  C#5,4
   db  SetInstrument,id_SKick
   db  C#5,2
   db  rest,2
   db  C#5,2
   db  C#5,2
   ret

.block7
   db  SetInstrument,id_SKick
   db  C#5,2
   db  rest,2
   db  C#5,4
   db  SetInstrument,id_SKick
   db  C#5,2
   db  rest,2
   db  C#5,4
   db  SetInstrument,id_SKick
   db  C#5,2
   db  rest,2
   db  C#5,4
   db  SetInstrument,id_SKick
   db  C#5,2
   db  rest,2
   db  C#5,2
   db  SetInstrument,id_SKick
   db  C#5,2
   db  C#5,2
   db  rest,2
   db  C#5,4
   db  SetInstrument,id_SKick
   db  C#5,2
   db  rest,2
   db  C#5,4
   db  SetInstrument,id_SKick
   db  C#5,2
   db  rest,2
   db  C#5,4
   db  SetInstrument,id_SKick
   db  C#5,2
   db  rest,2
   db  C#5,2
   db  C#5,2
   ret

.block8
   db  SetInstrument,id_SKick
   db  C#5,2
   db  rest,2
   db  C#5,4
   db  SetInstrument,id_SKick
   db  C#5,2
   db  rest,2
   db  C#5,4
   db  SetInstrument,id_SKick
   db  C#5,2
   db  rest,2
   db  C#5,4
   db  SetInstrument,id_SKick
   db  C#5,2
   db  rest,2
   db  C#5,2
   db  SetInstrument,id_SKick
   db  C#5,2
   db  C#5,2
   db  rest,2
   db  C#5,4
   db  SetInstrument,id_SKick
   db  C#5,2
   db  rest,2
   db  C#5,4
   db  SetInstrument,id_SKick
   db  C#5,2
   db  rest,2
   db  C#5,4
   db  SetInstrument,id_SKick
   db  C#5,2
   db  rest,2
   db  C#5,2
   db  C#5,2
   ret

.block9
   db  SetInstrument,id_SKick
   db  C#5,2
   db  rest,2
   db  C#5,4
   db  SetInstrument,id_SKick
   db  C#5,2
   db  rest,2
   db  C#5,4
   db  SetInstrument,id_SKick
   db  C#5,2
   db  rest,2
   db  C#5,4
   db  SetInstrument,id_SKick
   db  C#5,2
   db  rest,2
   db  C#5,2
   db  SetInstrument,id_SKick
   db  C#5,2
   db  C#5,2
   db  rest,2
   db  C#5,4
   db  SetInstrument,id_SKick
   db  C#5,2
   db  rest,2
   db  C#5,4
   db  SetInstrument,id_SKick
   db  C#5,2
   db  rest,2
   db  C#5,4
   db  SetInstrument,id_SKick
   db  C#5,2
   db  rest,2
   db  C#5,2
   db  C#5,2
   ret

.block10
   db  SetInstrument,id_SKick
   db  C#5,2
   db  rest,2
   db  C#5,4
   db  SetInstrument,id_SKick
   db  C#5,2
   db  rest,2
   db  C#5,4
   db  SetInstrument,id_SKick
   db  C#5,2
   db  rest,2
   db  C#5,4
   db  SetInstrument,id_SKick
   db  C#5,2
   db  rest,2
   db  C#5,2
   db  SetInstrument,id_SKick
   db  C#5,2
   db  C#5,2
   db  rest,2
   db  C#5,4
   db  SetInstrument,id_SKick
   db  C#5,2
   db  rest,2
   db  C#5,4
   db  SetInstrument,id_SKick
   db  C#5,2
   db  rest,2
   db  C#5,4
   db  SetInstrument,id_SKick
   db  C#5,2
   db  rest,2
   db  C#5,2
   db  C#5,2
   ret

.block11
   db  SetInstrument,id_SKick
   db  C#5,2
   db  rest,2
   db  C#5,4
   db  SetInstrument,id_SKick
   db  C#5,2
   db  rest,2
   db  C#5,4
   db  SetInstrument,id_SKick
   db  C#5,2
   db  rest,2
   db  C#5,4
   db  SetInstrument,id_SKick
   db  C#5,2
   db  rest,2
   db  C#5,2
   db  SetInstrument,id_SKick
   db  C#5,2
   db  C#5,2
   db  rest,2
   db  C#5,4
   db  SetInstrument,id_SKick
   db  C#5,2
   db  rest,2
   db  C#5,4
   db  SetInstrument,id_SKick
   db  C#5,2
   db  rest,2
   db  C#5,4
   db  SetInstrument,id_SKick
   db  C#5,2
   db  rest,2
   db  C#5,2
   db  C#5,2
   ret

.block12
   db  SetInstrument,id_SKick
   db  C#5,2
   db  rest,2
   db  C#5,4
   db  SetInstrument,id_SKick
   db  C#5,2
   db  rest,2
   db  C#5,4
   db  SetInstrument,id_SKick
   db  C#5,2
   db  rest,2
   db  C#5,4
   db  SetInstrument,id_SKick
   db  C#5,2
   db  rest,2
   db  C#5,2
   db  SetInstrument,id_SKick
   db  C#5,2
   db  C#5,2
   db  rest,2
   db  C#5,4
   db  SetInstrument,id_SKick
   db  C#5,2
   db  rest,2
   db  C#5,4
   db  SetInstrument,id_SKick
   db  C#5,2
   db  rest,2
   db  C#5,4
   db  SetInstrument,id_SKick
   db  C#5,2
   db  rest,2
   db  C#5,2
   db  C#5,2
   ret

.block13
   db  SetInstrument,id_SKick
   db  C#5,2
   db  rest,2
   db  C#5,4
   db  SetInstrument,id_SKick
   db  C#5,2
   db  rest,2
   db  C#5,4
   db  SetInstrument,id_SKick
   db  C#5,2
   db  rest,2
   db  C#5,4
   db  SetInstrument,id_SKick
   db  C#5,2
   db  rest,2
   db  C#5,2
   db  SetInstrument,id_SKick
   db  C#5,2
   db  C#5,2
   db  rest,2
   db  C#5,4
   db  SetInstrument,id_SKick
   db  C#5,2
   db  rest,2
   db  C#5,4
   db  SetInstrument,id_SKick
   db  C#5,2
   db  rest,2
   db  C#5,4
   db  SetInstrument,id_SKick
   db  C#5,2
   db  rest,2
   db  C#5,2
   db  C#5,2
   ret

.block14
   db  SetInstrument,id_SKick
   db  C#5,2
   db  rest,2
   db  C#5,4
   db  SetInstrument,id_SKick
   db  C#5,2
   db  rest,2
   db  C#5,4
   db  SetInstrument,id_SKick
   db  C#5,2
   db  rest,2
   db  C#5,4
   db  SetInstrument,id_SKick
   db  C#5,2
   db  rest,2
   db  C#5,2
   db  SetInstrument,id_SKick
   db  C#5,2
   db  C#5,2
   db  rest,2
   db  C#5,4
   db  SetInstrument,id_SKick
   db  C#5,2
   db  rest,2
   db  C#5,4
   db  SetInstrument,id_SKick
   db  C#5,2
   db  rest,2
   db  C#5,4
   db  SetInstrument,id_SKick
   db  C#5,2
   db  rest,2
   db  C#5,2
   db  C#5,2
   ret

.block15
   db  SetInstrument,id_SKick
   db  C#5,2
   db  rest,2
   db  C#5,4
   db  SetInstrument,id_SKick
   db  C#5,2
   db  rest,2
   db  C#5,4
   db  SetInstrument,id_SKick
   db  C#5,2
   db  rest,2
   db  C#5,4
   db  SetInstrument,id_SKick
   db  C#5,2
   db  rest,2
   db  C#5,2
   db  SetInstrument,id_SKick
   db  C#5,2
   db  C#5,2
   db  rest,2
   db  C#5,4
   db  SetInstrument,id_SKick
   db  C#5,2
   db  rest,2
   db  C#5,4
   db  SetInstrument,id_SKick
   db  C#5,2
   db  rest,2
   db  C#5,4
   db  SetInstrument,id_SKick
   db  C#5,2
   db  rest,2
   db  C#5,2
   db  C#5,2
   ret

.block16
   db  SetInstrument,id_Symbol
   db  E_3,24
   db  SetInstrument,id_SKick
   db  E_3,4
   db  E_3,4
   db  SetInstrument,id_Symbol
   db  E_3,28
   db  SetInstrument,id_SKick
   db  E_3,4
   ret

.block17
   db  SetInstrument,id_Symbol
   db  E_3,32
   db  E_3,12
   db  SetInstrument,id_SKick
   db  E_3,4
   db  SetInstrument,id_Symbol
   db  C#3,16
   ret

.block18
   db  SetInstrument,id_Symbol
   db  E_3,32
   db  E_3,20
   db  SetInstrument,id_SKick
   db  E_3,4
   db  SetInstrument,id_Symbol
   db  E_3,4
   db  SetInstrument,id_SKick
   db  E_3,2
   db  E_3,2
   ret

.block19
   db  SetInstrument,id_Symbol
   db  E_3,32
   db  E_3,8
   db  E_3,8
   db  E_4,4
   db  E_4,4
   db  SetInstrument,id_SKick
   db  E_4,2
   db  SetInstrument,id_Symbol
   db  E_4,2
   db  E_4,2
   db  E_4,2
   ret

.block20
   db  SetInstrument,id_SKick
   db  C#5,2
   db  rest,2
   db  C#5,4
   db  SetInstrument,id_SKick
   db  C#5,2
   db  rest,2
   db  C#5,4
   db  SetInstrument,id_SKick
   db  C#5,2
   db  rest,2
   db  C#5,4
   db  SetInstrument,id_SKick
   db  C#5,2
   db  rest,2
   db  C#5,2
   db  SetInstrument,id_SKick
   db  C#5,2
   db  C#5,2
   db  rest,2
   db  C#5,4
   db  SetInstrument,id_SKick
   db  C#5,2
   db  rest,2
   db  C#5,4
   db  SetInstrument,id_SKick
   db  C#5,2
   db  rest,2
   db  C#5,4
   db  SetInstrument,id_SKick
   db  C#5,2
   db  rest,2
   db  C#5,2
   db  C#5,2
   ret

.block21
   db  SetInstrument,id_SKick
   db  C#5,2
   db  rest,2
   db  C#5,4
   db  SetInstrument,id_SKick
   db  C#5,2
   db  rest,2
   db  C#5,4
   db  SetInstrument,id_SKick
   db  C#5,2
   db  rest,2
   db  C#5,4
   db  SetInstrument,id_SKick
   db  C#5,2
   db  rest,2
   db  C#5,2
   db  SetInstrument,id_SKick
   db  C#5,2
   db  C#5,2
   db  rest,2
   db  C#5,4
   db  SetInstrument,id_SKick
   db  C#5,2
   db  rest,2
   db  C#5,4
   db  SetInstrument,id_SKick
   db  C#5,2
   db  rest,2
   db  C#5,4
   db  SetInstrument,id_SKick
   db  C#5,2
   db  rest,2
   db  C#5,2
   db  C#5,2
   ret

.block22
   db  SetInstrument,id_SKick
   db  C#5,2
   db  rest,2
   db  C#5,4
   db  SetInstrument,id_SKick
   db  C#5,2
   db  rest,2
   db  C#5,4
   db  SetInstrument,id_SKick
   db  C#5,2
   db  rest,2
   db  C#5,4
   db  SetInstrument,id_SKick
   db  C#5,2
   db  rest,2
   db  C#5,2
   db  SetInstrument,id_SKick
   db  C#5,2
   db  C#5,2
   db  rest,2
   db  C#5,4
   db  SetInstrument,id_SKick
   db  C#5,2
   db  rest,2
   db  C#5,4
   db  SetInstrument,id_SKick
   db  C#5,2
   db  rest,2
   db  C#5,4
   db  SetInstrument,id_SKick
   db  C#5,2
   db  rest,2
   db  C#5,2
   db  C#5,2
   ret

.block23
   db  SetInstrument,id_SKick
   db  C#5,2
   db  rest,2
   db  C#5,4
   db  SetInstrument,id_SKick
   db  C#5,2
   db  rest,2
   db  C#5,4
   db  SetInstrument,id_SKick
   db  C#5,2
   db  rest,2
   db  C#5,4
   db  SetInstrument,id_SKick
   db  C#5,2
   db  rest,2
   db  C#5,2
   db  SetInstrument,id_SKick
   db  C#5,2
   db  C#5,2
   db  rest,2
   db  C#5,4
   db  SetInstrument,id_SKick
   db  C#5,2
   db  rest,2
   db  C#5,4
   db  SetInstrument,id_SKick
   db  C#5,2
   db  rest,2
   db  C#5,4
   db  SetInstrument,id_SKick
   db  C#5,2
   db  rest,2
   db  C#5,2
   db  C#5,2
   ret

.block24
   db  SetInstrument,id_SKick
   db  C#5,2
   db  rest,2
   db  C#5,4
   db  SetInstrument,id_SKick
   db  C#5,2
   db  rest,2
   db  C#5,4
   db  SetInstrument,id_SKick
   db  C#5,2
   db  rest,2
   db  C#5,4
   db  SetInstrument,id_SKick
   db  C#5,2
   db  rest,2
   db  C#5,2
   db  SetInstrument,id_SKick
   db  C#5,2
   db  C#5,2
   db  rest,2
   db  C#5,4
   db  SetInstrument,id_SKick
   db  C#5,2
   db  rest,2
   db  C#5,4
   db  SetInstrument,id_SKick
   db  C#5,2
   db  rest,2
   db  C#5,4
   db  SetInstrument,id_SKick
   db  C#5,2
   db  rest,2
   db  C#5,2
   db  C#5,2
   ret

.block25
   db  SetInstrument,id_SKick
   db  C#5,2
   db  rest,2
   db  C#5,4
   db  SetInstrument,id_SKick
   db  C#5,2
   db  rest,2
   db  C#5,4
   db  SetInstrument,id_SKick
   db  C#5,2
   db  rest,2
   db  C#5,4
   db  SetInstrument,id_SKick
   db  C#5,2
   db  rest,2
   db  C#5,2
   db  SetInstrument,id_SKick
   db  C#5,2
   db  C#5,2
   db  rest,2
   db  C#5,4
   db  SetInstrument,id_SKick
   db  C#5,2
   db  rest,2
   db  C#5,4
   db  SetInstrument,id_SKick
   db  C#5,2
   db  rest,2
   db  C#5,4
   db  SetInstrument,id_SKick
   db  C#5,2
   db  rest,2
   db  C#5,2
   db  C#5,2
   ret

.block26
   db  SetInstrument,id_SKick
   db  C#5,2
   db  rest,2
   db  C#5,4
   db  SetInstrument,id_SKick
   db  C#5,2
   db  rest,2
   db  C#5,4
   db  SetInstrument,id_SKick
   db  C#5,2
   db  rest,2
   db  C#5,4
   db  SetInstrument,id_SKick
   db  C#5,2
   db  rest,2
   db  C#5,2
   db  SetInstrument,id_SKick
   db  C#5,2
   db  C#5,2
   db  rest,2
   db  C#5,4
   db  SetInstrument,id_SKick
   db  C#5,2
   db  rest,2
   db  C#5,4
   db  SetInstrument,id_SKick
   db  C#5,2
   db  rest,2
   db  C#5,4
   db  SetInstrument,id_SKick
   db  C#5,2
   db  rest,2
   db  C#5,2
   db  C#5,2
   ret

.block27
   db  SetInstrument,id_SKick
   db  C#5,2
   db  rest,2
   db  C#5,4
   db  SetInstrument,id_SKick
   db  C#5,2
   db  rest,2
   db  C#5,4
   db  SetInstrument,id_SKick
   db  C#5,2
   db  rest,2
   db  C#5,4
   db  SetInstrument,id_SKick
   db  C#5,2
   db  rest,2
   db  C#5,2
   db  SetInstrument,id_SKick
   db  C#5,2
   db  C#5,2
   db  rest,2
   db  C#5,4
   db  SetInstrument,id_SKick
   db  C#5,2
   db  rest,2
   db  C#5,4
   db  SetInstrument,id_SKick
   db  C#5,2
   db  rest,2
   db  C#5,4
   db  SetInstrument,id_SKick
   db  C#5,2
   db  rest,2
   db  C#5,2
   db  C#5,2
   ret

.block28
   db  SetInstrument,id_SKick
   db  C#5,2
   db  rest,2
   db  C#5,4
   db  SetInstrument,id_SKick
   db  C#5,2
   db  rest,2
   db  C#5,4
   db  SetInstrument,id_SKick
   db  C#5,2
   db  rest,2
   db  C#5,4
   db  SetInstrument,id_SKick
   db  C#5,2
   db  rest,2
   db  C#5,2
   db  SetInstrument,id_SKick
   db  C#5,2
   db  C#5,2
   db  rest,2
   db  C#5,4
   db  SetInstrument,id_SKick
   db  C#5,2
   db  rest,2
   db  C#5,4
   db  SetInstrument,id_SKick
   db  C#5,2
   db  rest,2
   db  C#5,4
   db  SetInstrument,id_SKick
   db  C#5,2
   db  rest,2
   db  C#5,2
   db  C#5,2
   ret

.block29
   db  SetInstrument,id_SKick
   db  F_4,2
   db  rest,2
   db  C#5,4
   db  SetInstrument,id_SKick
   db  C#5,2
   db  rest,2
   db  C#5,4
   db  SetInstrument,id_SKick
   db  C#5,2
   db  rest,2
   db  C#5,4
   db  SetInstrument,id_SKick
   db  C#5,2
   db  rest,2
   db  C#5,2
   db  SetInstrument,id_SKick
   db  C#5,2
   db  C#5,2
   db  rest,2
   db  C#5,4
   db  SetInstrument,id_SKick
   db  C#5,2
   db  rest,2
   db  C#5,4
   db  SetInstrument,id_SKick
   db  C#5,2
   db  rest,2
   db  C#5,4
   db  SetInstrument,id_SKick
   db  C#5,2
   db  rest,2
   db  C#5,2
   db  C#5,2
   ret

.block30
   db  SetInstrument,id_SKick
   db  C#5,2
   db  rest,2
   db  C#5,4
   db  SetInstrument,id_SKick
   db  C#5,2
   db  rest,2
   db  C#5,4
   db  SetInstrument,id_SKick
   db  C#5,2
   db  rest,2
   db  C#5,4
   db  SetInstrument,id_SKick
   db  C#5,2
   db  rest,2
   db  C#5,2
   db  SetInstrument,id_SKick
   db  C#5,2
   db  C#5,2
   db  rest,2
   db  C#5,4
   db  SetInstrument,id_SKick
   db  C#5,2
   db  rest,2
   db  C#5,4
   db  SetInstrument,id_SKick
   db  C#5,2
   db  rest,2
   db  C#5,4
   db  SetInstrument,id_SKick
   db  C#5,2
   db  rest,2
   db  C#5,2
   db  C#5,2
   ret

.block31
   db  SetInstrument,id_SKick
   db  F_4,2
   db  rest,2
   db  C#5,4
   db  SetInstrument,id_SKick
   db  C#5,2
   db  rest,2
   db  C#5,4
   db  SetInstrument,id_SKick
   db  C#5,2
   db  rest,2
   db  C#5,4
   db  SetInstrument,id_SKick
   db  C#5,2
   db  rest,2
   db  C#5,2
   db  SetInstrument,id_SKick
   db  C#5,2
   db  C#5,2
   db  rest,2
   db  C#5,4
   db  SetInstrument,id_SKick
   db  C#5,2
   db  rest,2
   db  C#5,4
   db  SetInstrument,id_SKick
   db  C#5,2
   db  rest,2
   db  C#5,4
   db  SetInstrument,id_SKick
   db  C#5,2
   db  rest,2
   db  C#5,2
   db  C#5,2
   ret

.block32
   db  SetInstrument,id_SKick
   db  C#5,2
   db  rest,2
   db  C#5,4
   db  SetInstrument,id_SKick
   db  C#5,2
   db  rest,2
   db  C#5,4
   db  SetInstrument,id_SKick
   db  C#5,2
   db  rest,2
   db  C#5,4
   db  SetInstrument,id_SKick
   db  C#5,2
   db  rest,2
   db  C#5,2
   db  SetInstrument,id_SKick
   db  C#5,2
   db  C#5,2
   db  rest,2
   db  C#5,4
   db  SetInstrument,id_SKick
   db  C#5,2
   db  rest,2
   db  C#5,4
   db  SetInstrument,id_SKick
   db  C#5,2
   db  rest,2
   db  C#5,4
   db  SetInstrument,id_SKick
   db  C#5,2
   db  rest,2
   db  C#5,2
   db  C#5,2
   ret

.block33
   db  SetInstrument,id_SKick
   db  F_4,2
   db  rest,2
   db  C#5,4
   db  SetInstrument,id_SKick
   db  C#5,2
   db  rest,2
   db  C#5,4
   db  SetInstrument,id_SKick
   db  C#5,2
   db  rest,2
   db  C#5,4
   db  SetInstrument,id_SKick
   db  C#5,2
   db  rest,2
   db  C#5,2
   db  SetInstrument,id_SKick
   db  C#5,2
   db  C#5,2
   db  rest,2
   db  C#5,4
   db  SetInstrument,id_SKick
   db  C#5,2
   db  rest,2
   db  C#5,4
   db  SetInstrument,id_SKick
   db  C#5,2
   db  rest,2
   db  C#5,4
   db  SetInstrument,id_SKick
   db  C#5,2
   db  rest,2
   db  C#5,2
   db  C#5,2
   ret

.block34
   db  SetInstrument,id_SKick
   db  C#5,2
   db  rest,2
   db  C#5,4
   db  SetInstrument,id_SKick
   db  C#5,2
   db  rest,2
   db  C#5,4
   db  SetInstrument,id_SKick
   db  C#5,2
   db  rest,2
   db  C#5,4
   db  SetInstrument,id_SKick
   db  C#5,2
   db  rest,2
   db  C#5,2
   db  SetInstrument,id_SKick
   db  C#5,2
   db  C#5,2
   db  rest,2
   db  C#5,4
   db  SetInstrument,id_SKick
   db  C#5,2
   db  rest,2
   db  C#5,4
   db  SetInstrument,id_SKick
   db  C#5,2
   db  rest,2
   db  C#5,4
   db  SetInstrument,id_SKick
   db  C#5,2
   db  rest,2
   db  C#5,2
   db  C#5,2
   ret

.block35
   db  SetInstrument,id_SKick
   db  F_4,2
   db  rest,2
   db  C#5,4
   db  SetInstrument,id_SKick
   db  C#5,2
   db  rest,2
   db  C#5,4
   db  SetInstrument,id_SKick
   db  C#5,2
   db  rest,2
   db  C#5,4
   db  SetInstrument,id_SKick
   db  C#5,2
   db  rest,2
   db  C#5,2
   db  SetInstrument,id_SKick
   db  C#5,2
   db  C#5,2
   db  rest,2
   db  C#5,4
   db  SetInstrument,id_SKick
   db  C#5,2
   db  rest,2
   db  C#5,4
   db  SetInstrument,id_SKick
   db  C#5,2
   db  rest,2
   db  C#5,4
   db  SetInstrument,id_SKick
   db  C#5,2
   db  rest,2
   db  C#5,2
   db  C#5,2
   ret

.block36
   db  SetInstrument,id_SKick
   db  C#5,2
   db  rest,2
   db  C#5,4
   db  SetInstrument,id_SKick
   db  C#5,2
   db  rest,2
   db  C#5,4
   db  SetInstrument,id_SKick
   db  C#5,2
   db  rest,2
   db  C#5,4
   db  SetInstrument,id_SKick
   db  C#5,2
   db  rest,2
   db  C#5,2
   db  SetInstrument,id_SKick
   db  C#5,2
   db  C#5,2
   db  rest,2
   db  C#5,4
   db  SetInstrument,id_SKick
   db  C#5,2
   db  rest,2
   db  C#5,4
   db  SetInstrument,id_SKick
   db  C#5,2
   db  rest,2
   db  C#5,4
   db  SetInstrument,id_SKick
   db  C#5,2
   db  rest,2
   db  C#5,2
   db  C#5,2
   ret

.block37
   db  SetInstrument,id_SKick
   db  F_4,2
   db  rest,2
   db  C#5,4
   db  SetInstrument,id_SKick
   db  C#5,2
   db  rest,2
   db  C#5,4
   db  SetInstrument,id_SKick
   db  C#5,2
   db  rest,2
   db  C#5,4
   db  SetInstrument,id_SKick
   db  C#5,2
   db  rest,2
   db  C#5,2
   db  SetInstrument,id_SKick
   db  C#5,2
   db  C#5,2
   db  rest,2
   db  C#5,4
   db  SetInstrument,id_SKick
   db  C#5,2
   db  rest,2
   db  C#5,4
   db  SetInstrument,id_SKick
   db  C#5,2
   db  rest,2
   db  C#5,4
   db  SetInstrument,id_SKick
   db  C#5,2
   db  rest,2
   db  C#5,2
   db  C#5,2
   ret

.block38
   db  SetInstrument,id_SKick
   db  C#5,2
   db  rest,2
   db  C#5,4
   db  SetInstrument,id_SKick
   db  C#5,2
   db  rest,2
   db  C#5,4
   db  SetInstrument,id_SKick
   db  C#5,2
   db  rest,2
   db  C#5,4
   db  SetInstrument,id_SKick
   db  C#5,2
   db  rest,2
   db  C#5,2
   db  SetInstrument,id_SKick
   db  C#5,2
   db  C#5,2
   db  rest,2
   db  C#5,4
   db  SetInstrument,id_SKick
   db  C#5,2
   db  rest,2
   db  C#5,4
   db  SetInstrument,id_SKick
   db  C#5,2
   db  rest,2
   db  C#5,4
   db  SetInstrument,id_SKick
   db  C#5,2
   db  rest,2
   db  C#5,2
   db  C#5,2
   ret

.block39
   db  SetInstrument,id_SKick
   db  F_4,2
   db  rest,2
   db  C#5,4
   db  SetInstrument,id_SKick
   db  C#5,2
   db  rest,2
   db  C#5,4
   db  SetInstrument,id_SKick
   db  C#5,2
   db  rest,2
   db  C#5,4
   db  SetInstrument,id_SKick
   db  C#5,2
   db  rest,2
   db  C#5,2
   db  SetInstrument,id_SKick
   db  C#5,2
   db  C#5,2
   db  rest,2
   db  C#5,4
   db  SetInstrument,id_SKick
   db  C#5,2
   db  rest,2
   db  C#5,4
   db  SetInstrument,id_SKick
   db  C#5,2
   db  rest,2
   db  C#5,4
   db  SetInstrument,id_SKick
   db  C#5,2
   db  rest,2
   db  C#5,2
   db  C#5,2
   ret

.block40
   db  SetInstrument,id_Symbol
   db  E_4,64
   ret

